<?xml version="1.0" encoding="iso-8859-1"?>
<!-- Uploaded to: SVG Repo, www.svgrepo.com, Generator: SVG Repo Mixer Tools -->
<!DOCTYPE svg PUBLIC "-//W3C//DTD SVG 1.1//EN" "http://www.w3.org/Graphics/SVG/1.1/DTD/svg11.dtd">
<svg fill="#000000" version="1.1" id="Capa_1" xmlns="http://www.w3.org/2000/svg" xmlns:xlink="http://www.w3.org/1999/xlink" 
	 width="800px" height="800px" viewBox="0 0 97.11 97.11" xml:space="preserve"
	>
<g>
	<path d="M50.118,96.357l14.011-17.562c0.479-0.602,0.572-1.424,0.238-2.115c-0.333-0.692-1.034-1.133-1.802-1.133h-4.631V21.563
		h4.631c0.768,0,1.469-0.44,1.802-1.132c0.333-0.693,0.24-1.514-0.238-2.115L50.118,0.753C49.739,0.277,49.164,0,48.556,0
		s-1.184,0.277-1.563,0.753l-14.01,17.562c-0.479,0.601-0.572,1.421-0.238,2.115c0.333,0.692,1.034,1.132,1.802,1.132h4.632v53.984
		h-4.633c-0.768,0-1.469,0.44-1.802,1.133c-0.334,0.691-0.241,1.514,0.238,2.115l14.009,17.562c0.379,0.476,0.955,0.753,1.563,0.753
		S49.739,96.833,50.118,96.357z"/>
</g>
</svg>